<?xml version="1.0" encoding="utf-8"?>
<!-- Generator: Adobe Illustrator 26.0.1, SVG Export Plug-In . SVG Version: 6.00 Build 0)  -->
<svg version="1.1" id="Layer_1" xmlns="http://www.w3.org/2000/svg" xmlns:xlink="http://www.w3.org/1999/xlink" x="0px" y="0px"
	 viewBox="0 0 49.4 50" style="enable-background:new 0 0 49.4 50;" xml:space="preserve">
<style type="text/css">
	.st0{fill-rule:evenodd;clip-rule:evenodd;fill:#878787;}
	.st1{fill-rule:evenodd;clip-rule:evenodd;fill:url(#SVGID_1_);}
	.st2{fill-rule:evenodd;clip-rule:evenodd;fill:url(#SVGID_00000119827242821361261800000002958923163119368635_);}
	.st3{fill-rule:evenodd;clip-rule:evenodd;fill:url(#Shape_00000107552590579123157230000014596167334807253664_);}
	.st4{fill-rule:evenodd;clip-rule:evenodd;fill:#004B82;}
	.st5{fill-rule:evenodd;clip-rule:evenodd;fill:url(#Shape_00000016038796920524879960000015262542827286840767_);}
	.st6{fill-rule:evenodd;clip-rule:evenodd;fill:#FFEC41;}
	.st7{fill-rule:evenodd;clip-rule:evenodd;fill:url(#Shape_00000083090688611783736170000004083774000112707722_);}
	.st8{fill-rule:evenodd;clip-rule:evenodd;fill:#0082C0;}
	.st9{fill-rule:evenodd;clip-rule:evenodd;fill:url(#Shape_00000164471993306622427460000010865416044342796470_);}
	.st10{fill-rule:evenodd;clip-rule:evenodd;fill:url(#Shape_00000109739322382003904740000011882449846050640018_);}
	.st11{fill-rule:evenodd;clip-rule:evenodd;fill:url(#Shape_00000134969442192955448050000013735323043324382894_);}
	.st12{display:none;}
	.st13{display:inline;}
	.st14{fill-rule:evenodd;clip-rule:evenodd;fill:#1D1D1B;}
</style>
<desc>Created with Sketch.</desc>
<g id="Assets">
	<g id="logo_OMSG">
		<g transform="translate(1.000000, 1.000000)">
			<g id="Ebene_1">
				<g id="Group">
					<path id="Shape" class="st0" d="M46,18.1c0-0.1-0.1-0.2-0.2-0.2C42.7,13.8,39,10,35,6.7c-2.2-1.8-4.5-3.5-6.9-5
						c0,0-0.1,0-0.1-0.1C27.1,1,26,0.6,24.8,0.6c-0.4,0-0.8,0-1.1,0.1C23.1,0.9,22.5,1,22,1.3c-0.8,0.4-1.4,0.7-2,1.1
						C12,6.8,5.5,13.5,1.3,21.6c0,0,0,0,0,0.1C1.2,21.8,1.1,22,1,22.2c-0.3,0.7-0.5,1.6-0.5,2.4c0,0,0,0.1,0,0.1
						c0,0.6,0.1,1.2,0.3,1.8c0,0,0,0.1,0,0.1C2.4,31,4.8,35,8,38.3c0.1,0.1,0.1,0.1,0.1,0.2c0.2,0.2,0.4,0.4,0.6,0.6
						c0.4,0.4,0.8,0.8,1.2,1.1c0.7,0.6,1.4,1.2,2.1,1.7c1.4,1,2.9,2,4.5,2.8c2,1,4.1,1.8,6.2,2.3c0.6,0.2,1.2,0.3,1.8,0.4
						c0,0,0.1,0,0.1,0c0.3,0.1,0.7,0.1,1,0.1c0.9,0,1.7-0.2,2.5-0.5c0,0,0,0,0,0c3.9-1.7,7.5-4.2,10.4-7.3c0,0,0,0,0,0
						c1.2-1.2,2.2-2.6,3.2-4c2.2-3.2,3.8-6.8,4.6-10.7c0.1-0.6,0.3-1.3,0.4-1.9c0-0.1,0-0.1,0-0.2c0,0,0-0.1,0-0.1c0,0,0,0,0,0
						c0-0.3,0.1-0.6,0.1-0.9C47.1,20.4,46.7,19.1,46,18.1L46,18.1z"/>
					<g id="Shape_00000034075088068833307300000009716002663485728703_" transform="translate(7.033182, 32.352636)">
						
							<linearGradient id="SVGID_1_" gradientUnits="userSpaceOnUse" x1="-179.133" y1="342.7876" x2="-182.006" y2="343.0875" gradientTransform="matrix(8.6965 0 0 -5.7458 1586.1726 1974.668)">
							<stop  offset="0" style="stop-color:#018FB5"/>
							<stop  offset="1" style="stop-color:#00A4B7"/>
						</linearGradient>
						<path class="st1" d="M8.8,5.8L8.8,5.8L8.8,5.8C5.6,4.4,2.7,2.5,0.1,0.3C0.2,2.2,0.4,4.1,0.8,6C0.9,6,4.5,6.2,8.8,5.8L8.8,5.8z
							"/>
						
							<linearGradient id="SVGID_00000160883651672476711310000016180516700439180423_" gradientUnits="userSpaceOnUse" x1="-197.6956" y1="370.4454" x2="-198.694" y2="370.6666" gradientTransform="matrix(31.0374 0 0 -9.5504 6167.5215 3549.6445)">
							<stop  offset="0" style="stop-color:#00C0F1"/>
							<stop  offset="1" style="stop-color:#02A2E5"/>
						</linearGradient>
						
							<path style="fill-rule:evenodd;clip-rule:evenodd;fill:url(#SVGID_00000160883651672476711310000016180516700439180423_);" d="
							M1,6.2c0.2,0.2,0.4,0.4,0.6,0.6C2,7.2,2.4,7.6,2.9,8C3.5,8.5,4.3,9.1,5,9.7c1.4,1,3,2,4.6,2.8c2,1,4.1,1.8,6.3,2.4
							c0.6,0.2,1.2,0.3,1.8,0.4c0,0,0.1,0,0.1,0c0.3,0.1,0.7,0.1,1,0.1c0.9,0,1.7-0.2,2.5-0.5c0,0,0,0,0,0c4-1.7,7.5-4.3,10.4-7.4
							c0,0,0,0,0,0c-2.2,0.6-4.4,1-6.8,1.2C19.3,9,13.8,7.9,8.8,5.8l0,0l0,0C4.5,6.2,0.9,6,0.8,6v0C0.9,6.1,0.9,6.1,1,6.2L1,6.2z"/>
					</g>
					
						<radialGradient id="Shape_00000081627407991605777170000005063020198335981743_" cx="-192.3558" cy="431.2701" r="1.1467" gradientTransform="matrix(34.3639 0 0 -31.0339 6614.1401 13417.7627)" gradientUnits="userSpaceOnUse">
						<stop  offset="0.1199" style="stop-color:#0086AD"/>
						<stop  offset="1" style="stop-color:#006539"/>
					</radialGradient>
					
						<path id="Shape_00000039097230575056476310000018054194883346848953_" style="fill-rule:evenodd;clip-rule:evenodd;fill:url(#Shape_00000081627407991605777170000005063020198335981743_);" d="
						M30.9,7.1c-1,0.2-1.9,0.3-2.9,0.6c-6.3,1.4-12.1,3.7-17.3,6.9c-0.6,1.2-1.1,2.5-1.5,3.8c-1.6,4.7-2.3,9.6-2,14.3
						c2.6,2.2,5.5,4.1,8.7,5.5c9.1-0.9,17.9-4.1,25.6-9.2C40.1,20.9,36.4,13.3,30.9,7.1L30.9,7.1z"/>
					<path id="Shape_00000160158720441196904980000008598527111037612183_" class="st4" d="M0.4,24.8c0,0.6,0.1,1.2,0.3,1.8
						c0,0,0,0.1,0,0.1c1.5,4.4,4,8.4,7.2,11.7c-0.4-1.9-0.6-4.2-0.7-6.1C4.5,30,2.2,27.7,0.4,24.8L0.4,24.8z"/>
					
						<linearGradient id="Shape_00000143598845217784686070000011287076820955654276_" gradientUnits="userSpaceOnUse" x1="-187.4147" y1="416.1987" x2="-188.192" y2="415.4593" gradientTransform="matrix(20.1613 0 0 -13.9032 3805.6575 5790.0239)">
						<stop  offset="0" style="stop-color:#F76A38"/>
						<stop  offset="1" style="stop-color:#FA6D71"/>
					</linearGradient>
					
						<path id="Shape_00000182530797356187429150000012638114493019008685_" style="fill-rule:evenodd;clip-rule:evenodd;fill:url(#Shape_00000143598845217784686070000011287076820955654276_);" d="
						M10.7,14.5c5.2-3.2,11-5.5,17.3-6.9c1-0.2,1.9-0.4,2.9-0.6c-2.1-2.4-4.6-4.6-7.3-6.5C23,0.7,22.5,0.9,22,1.2
						c-0.8,0.4-1.4,0.7-2,1.1C16.1,5.6,13,9.7,10.7,14.5L10.7,14.5z"/>
					<path id="Shape_00000152252456225097740780000015526754745950202520_" class="st6" d="M30.9,7.1c1.4-0.2,2.8-0.4,4.2-0.5
						c-2.2-1.8-4.5-3.5-6.9-5.1c0,0-0.1,0-0.1-0.1c-1-0.6-2.1-0.9-3.3-0.9c-0.4,0-0.8,0-1.1,0.1C26.3,2.5,28.7,4.7,30.9,7.1
						L30.9,7.1z"/>
					
						<linearGradient id="Shape_00000088838976043940484460000005604782318985255042_" gradientUnits="userSpaceOnUse" x1="-185.7984" y1="427.1917" x2="-185.0864" y2="426.3332" gradientTransform="matrix(16.3655 0 0 -22.3817 3074.2478 9567.9551)">
						<stop  offset="0" style="stop-color:#00C842"/>
						<stop  offset="1" style="stop-color:#007B4E"/>
					</linearGradient>
					
						<path id="Shape_00000044872780298579573800000004365820749262093486_" style="fill-rule:evenodd;clip-rule:evenodd;fill:url(#Shape_00000088838976043940484460000005604782318985255042_);" d="
						M41.4,28.9c1.8-1.2,3.6-2.6,5.3-4c0.1-0.6,0.3-1.3,0.4-1.9c0-0.1,0-0.1,0-0.2c0,0,0-0.1,0-0.1c0,0,0,0,0,0
						c0-0.3,0.1-0.6,0.1-0.9c0-1.4-0.4-2.6-1.2-3.6c0-0.1-0.1-0.2-0.2-0.2c-3.2-4.2-6.8-7.9-10.9-11.3c-1.4,0.1-2.8,0.3-4.2,0.5
						C36.4,13.3,40.1,20.9,41.4,28.9L41.4,28.9z"/>
					<path id="Shape_00000012454423618641026120000001730458011662209202_" class="st8" d="M42.1,35.7c2.2-3.2,3.8-6.9,4.7-10.8
						c-1.7,1.4-3.5,2.8-5.3,4C41.8,31.2,42,33.4,42.1,35.7L42.1,35.7z"/>
					
						<linearGradient id="Shape_00000005971420015744779000000015667012530716199057_" gradientUnits="userSpaceOnUse" x1="-186.7324" y1="425.0004" x2="-187.6632" y2="424.0624" gradientTransform="matrix(19.1014 0 0 -19.9433 3585.9258 8478.8076)">
						<stop  offset="0" style="stop-color:#F7232B"/>
						<stop  offset="1" style="stop-color:#F9355E"/>
					</linearGradient>
					
						<path id="Shape_00000180327871363136703370000004540926510450987181_" style="fill-rule:evenodd;clip-rule:evenodd;fill:url(#Shape_00000005971420015744779000000015667012530716199057_);" d="
						M19.9,2.2c-8,4.5-14.6,11.2-18.8,19.3c0,0,0,0,0,0.1C1,21.8,0.9,22,0.8,22.2c3-2.9,6.3-5.5,9.9-7.6C13,9.7,16.1,5.6,19.9,2.2
						L19.9,2.2z"/>
					
						<linearGradient id="Shape_00000001644439757679728320000006138671958449301130_" gradientUnits="userSpaceOnUse" x1="-189.5016" y1="411.5938" x2="-190.4843" y2="411.2092" gradientTransform="matrix(26.2401 0 0 -12.0485 5014.3647 4993.1812)">
						<stop  offset="0" style="stop-color:#006BB4"/>
						<stop  offset="1" style="stop-color:#0080C6"/>
					</linearGradient>
					
						<path id="Shape_00000132079170898706577160000008259911473326804907_" style="fill-rule:evenodd;clip-rule:evenodd;fill:url(#Shape_00000001644439757679728320000006138671958449301130_);" d="
						M15.8,38.1c5,2.2,10.5,3.2,16.3,2.8c2.3-0.2,4.6-0.6,6.8-1.2c1.2-1.2,2.2-2.6,3.2-4c0-2.3-0.2-4.6-0.6-6.8
						C33.8,34.1,24.9,37.2,15.8,38.1L15.8,38.1z"/>
					
						<linearGradient id="Shape_00000150801286738291299650000012372569796651054012_" gradientUnits="userSpaceOnUse" x1="-178.0718" y1="423.0282" x2="-178.6843" y2="422.2815" gradientTransform="matrix(10.367 0 0 -18.1224 1856.0112 7681.0093)">
						<stop  offset="0" style="stop-color:#002A4A"/>
						<stop  offset="1" style="stop-color:#00437A"/>
					</linearGradient>
					
						<path id="Shape_00000183927945994145910790000008874282234644658569_" style="fill-rule:evenodd;clip-rule:evenodd;fill:url(#Shape_00000150801286738291299650000012372569796651054012_);" d="
						M0.4,24.8c1.9,3,4.1,5.6,6.8,7.9c-0.2-4.7,0.4-9.6,2-14.3c0.5-1.3,1-2.6,1.5-3.8c-3.6,2.2-6.9,4.8-9.9,7.6
						c-0.3,0.8-0.5,1.6-0.5,2.4C0.3,24.7,0.4,24.7,0.4,24.8L0.4,24.8z"/>
				</g>
			</g>
			<g id="schrift" transform="translate(64.001954, 7.736500)" class="st12">
				<g id="Group_00000020376647713325033720000004750842073144076722_" class="st13">
					<path id="Shape_00000049219969224909388800000012217783089176306587_" class="st14" d="M7.3,0.8c4,0,7,3,7,7c0,4-3,7-7,7
						c-4,0-7-3-7-7C0.3,3.8,3.3,0.8,7.3,0.8L7.3,0.8z M7.3,12.8c2.9,0,4.9-2.2,4.9-5c0-2.9-2.1-5-4.9-5c-2.8,0-4.9,2.1-4.9,5
						C2.3,10.6,4.4,12.8,7.3,12.8L7.3,12.8z"/>
					<path id="Shape_00000097501190161926251680000009597293386251913380_" class="st14" d="M18.9,0.4v11.3c0,0.9,0.4,1.3,1,1.3
						c0.5,0,0.8-0.1,1.2-0.4l0.2,1.7c-0.5,0.2-1.3,0.5-2.1,0.5c-1.4,0-2.4-0.7-2.4-2.6V0.4H18.9L18.9,0.4z"/>
					<path id="Shape_00000073711433608610560570000017740083396915844234_" class="st14" d="M25,4.1v1.6c0.8-1.1,2-1.8,3.6-1.8
						c2,0,3,0.8,3.6,2.1c0.7-1.1,2-2.1,4-2.1c2.8,0,4,2,4,4.6v6h-2.1V8.8c0-1.8-0.7-3-2.6-3c-1.6,0-2.6,1-2.9,2.2v6.5h-2.1V8.8
						c0-1.8-0.7-3-2.6-3c-1.7,0-2.6,1-3,2.2v6.5H23V4.1L25,4.1L25,4.1z"/>
					<path id="Shape_00000016068915639739682020000005867962663176393142_" class="st14" d="M43.4,4.6c1-0.4,2.5-0.7,3.8-0.7
						c3,0,4.2,1.7,4.2,4v6.6h-2.1v-1.1c-0.7,0.7-1.8,1.3-3.3,1.3c-2.2,0-3.5-1.2-3.5-3.1c0-2.5,2-3.7,4.9-3.7c0.7,0,1.4,0.1,2,0.2V8
						c0-1.6-0.8-2.3-2.3-2.3c-1.1,0-2.4,0.3-3.3,0.7L43.4,4.6L43.4,4.6z M46.6,13.1c1.2,0,2.2-0.6,2.7-1.1V9.6
						c-0.4-0.1-1-0.2-1.6-0.2c-1.8,0-3.2,0.6-3.2,2C44.5,12.5,45.3,13.1,46.6,13.1L46.6,13.1z"/>
					<polygon id="Shape_00000016073415391252663380000006215395160079957912_" class="st14" points="72.5,4.3 67.4,10.4 67,10.4 
						61.9,4.3 61.9,14.5 59.8,14.5 59.8,1 61.7,1 67.2,7.6 72.7,1 74.6,1 74.6,14.5 72.5,14.5 72.5,4.3 					"/>
					<path id="Shape_00000038387747928080158010000011552275275073730718_" class="st14" d="M87.3,13.4c-1.1,0.9-2.6,1.4-4.3,1.4
						c-3.9,0-5.6-2.4-5.6-5.5c0-3.1,2.1-5.5,5.5-5.5c3.2,0,4.6,2,4.6,4.3c0,0.6-0.1,1.5-0.2,1.8h-7.7c0.2,1.8,1.3,3,3.6,3
						c1.4,0,2.6-0.6,3.4-1.2L87.3,13.4L87.3,13.4z M85.4,7.8c0-1.2-0.8-2.3-2.7-2.3c-2,0-3.1,1.3-3.2,2.8h5.9
						C85.4,8.2,85.4,8,85.4,7.8L85.4,7.8z"/>
					<path id="Shape_00000111908056084198190790000015415780147246250911_" class="st14" d="M97.2,6.5c-0.9-0.4-2.1-0.8-3.3-0.8
						c-1.3,0-2,0.5-2,1.4c0,0.7,0.4,0.9,1.5,1.2l1.7,0.4c2.1,0.5,3,1.4,3,2.9c0,1.9-1.7,3.2-4.3,3.2c-1.8,0-3.2-0.5-3.9-0.9l0.4-1.8
						c0.9,0.5,2.1,1,3.5,1c1.4,0,2.3-0.5,2.3-1.3c0-0.6-0.6-1-1.7-1.3L92.7,10c-2-0.5-2.9-1.3-2.9-2.8c0-2,1.5-3.3,4.2-3.3
						c1.3,0,2.9,0.4,3.7,0.8L97.2,6.5L97.2,6.5z"/>
					<path id="Shape_00000137834406446027325910000001447428207806197381_" class="st14" d="M107.4,6.5c-0.9-0.4-2.1-0.8-3.3-0.8
						c-1.3,0-2,0.5-2,1.4c0,0.7,0.4,0.9,1.5,1.2l1.7,0.4c2.1,0.5,3,1.4,3,2.9c0,1.9-1.7,3.2-4.3,3.2c-1.8,0-3.2-0.5-3.9-0.9l0.4-1.8
						c0.9,0.5,2.1,1,3.5,1c1.4,0,2.3-0.5,2.3-1.3c0-0.6-0.6-1-1.7-1.3l-1.6-0.4c-2-0.5-2.9-1.3-2.9-2.8c0-2,1.5-3.3,4.2-3.3
						c1.3,0,2.9,0.4,3.7,0.8L107.4,6.5L107.4,6.5z"/>
					<path id="Shape_00000004508909063136639080000013298427661710912164_" class="st14" d="M120,13.4c-1.1,0.9-2.6,1.4-4.3,1.4
						c-3.9,0-5.6-2.4-5.6-5.5c0-3.1,2.1-5.5,5.5-5.5c3.2,0,4.6,2,4.6,4.3c0,0.6-0.1,1.5-0.2,1.8h-7.7c0.2,1.8,1.3,3,3.6,3
						c1.4,0,2.6-0.6,3.4-1.2L120,13.4L120,13.4z M118.2,7.8c0-1.2-0.8-2.3-2.7-2.3c-2,0-3.1,1.3-3.2,2.8h5.9
						C118.2,8.2,118.2,8,118.2,7.8L118.2,7.8z"/>
					<path id="Shape_00000142855214078887577670000012487627141703901371_" class="st14" d="M125.2,4.1v1.6c0.8-1.1,2.1-1.8,3.7-1.8
						c2.8,0,4.1,2,4.1,4.6v6h-2.1V8.8c0-1.8-0.8-3-2.6-3c-1.7,0-2.7,1.1-3.1,2.3v6.4h-2.1V4.1L125.2,4.1L125.2,4.1z"/>
					<path id="Shape_00000150096996496802818310000005614036553785987758_" class="st14" d="M0.9,30.5c0.9,0.6,2.5,1.3,4.3,1.3
						c2,0,3.3-0.8,3.3-2.1c0-1-0.7-1.5-2.4-1.9l-2.4-0.6c-2.3-0.5-3.4-1.8-3.4-3.5c0-2.1,1.7-3.9,5.2-3.9c1.9,0,3.7,0.5,4.7,1.1
						l-0.6,1.9c-1-0.6-2.7-1.1-4.2-1.1c-2.1,0-3,0.8-3,1.8c0,0.9,0.6,1.4,1.9,1.7L7,25.9c2.4,0.6,3.7,1.7,3.7,3.6
						c0,2.5-2.3,4.2-5.5,4.2c-2,0-3.9-0.7-4.8-1.2L0.9,30.5L0.9,30.5z"/>
					<path id="Shape_00000119102638124070845920000007374657093789592757_" class="st14" d="M15.5,20.4v2.6h4.1v1.6h-4.1v5.2
						c0,1.4,0.6,2,1.7,2c0.8,0,1.7-0.4,2.3-0.8l0.7,1.6c-0.9,0.6-2.2,1-3.6,1c-1.9,0-3.1-1.2-3.1-3.4v-5.6h-2v-1.6h2l0.2-2.6
						L15.5,20.4L15.5,20.4z"/>
					<path id="Shape_00000142139719384752282500000011394826927860663480_" class="st14" d="M23.8,31c0.9,0,1.4,0.5,1.4,1.4
						c0,0.9-0.5,1.4-1.4,1.4s-1.4-0.5-1.4-1.4C22.4,31.5,22.9,31,23.8,31L23.8,31z"/>
					<path id="Shape_00000096017779043442079700000013227823955605584048_" class="st14" d="M40.3,31.9c-1.3,1-3.6,1.8-5.7,1.8
						c-4,0-7.2-2.6-7.2-7c0-4.4,3.2-7,7.2-7c2.2,0,3.8,0.7,5.2,1.9l-1,1.6c-1.1-1-2.4-1.5-4.1-1.5c-2.9,0-5.1,1.9-5.1,5.1
						c0,3.2,2.3,5,5.2,5c1.3,0,2.6-0.4,3.5-1v-3.1H34v-1.8h6.3L40.3,31.9L40.3,31.9z"/>
					<path id="Shape_00000144330774709546780950000004839747810230813868_" class="st14" d="M43.1,23.6c1-0.4,2.5-0.7,3.8-0.7
						c3,0,4.2,1.7,4.2,4v6.6h-2.1v-1.1c-0.7,0.7-1.8,1.3-3.3,1.3c-2.2,0-3.5-1.2-3.5-3.1c0-2.5,2-3.7,4.9-3.7c0.7,0,1.4,0.1,2,0.2
						V27c0-1.6-0.8-2.3-2.3-2.3c-1.1,0-2.4,0.3-3.3,0.7L43.1,23.6L43.1,23.6z M46.4,32.1c1.2,0,2.2-0.6,2.7-1.1v-2.4
						c-0.4-0.1-1-0.2-1.6-0.2c-1.8,0-3.2,0.6-3.2,2C44.3,31.5,45.1,32.1,46.4,32.1L46.4,32.1z"/>
					<path id="Shape_00000158000366018875946620000005297481579524137895_" class="st14" d="M56.3,19.4v11.3c0,0.9,0.4,1.3,1,1.3
						c0.5,0,0.8-0.1,1.2-0.4l0.2,1.7c-0.5,0.2-1.3,0.5-2.1,0.5c-1.4,0-2.4-0.7-2.4-2.6V19.4H56.3L56.3,19.4z"/>
					<path id="Shape_00000025428070167965778030000005710628185491032206_" class="st14" d="M62.5,19.4v11.3c0,0.9,0.4,1.3,1,1.3
						c0.5,0,0.8-0.1,1.2-0.4l0.2,1.7c-0.5,0.2-1.3,0.5-2.1,0.5c-1.4,0-2.4-0.7-2.4-2.6V19.4H62.5L62.5,19.4z"/>
					<path id="Shape_00000173142279750129302760000007044953422650479291_" class="st14" d="M75.9,32.4c-1.1,0.9-2.6,1.4-4.3,1.4
						c-3.9,0-5.6-2.4-5.6-5.5c0-3.1,2.1-5.5,5.5-5.5c3.2,0,4.6,2,4.6,4.3c0,0.6-0.1,1.5-0.2,1.8h-7.7c0.2,1.8,1.3,3,3.6,3
						c1.4,0,2.6-0.6,3.4-1.2L75.9,32.4L75.9,32.4z M74,26.8c0-1.2-0.8-2.3-2.7-2.3c-2,0-3.1,1.3-3.2,2.8H74C74,27.2,74,27,74,26.8
						L74,26.8z"/>
					<path id="Shape_00000026126566048884244460000002489793382922450615_" class="st14" d="M80.6,23.1v1.6c0.8-1.1,2.1-1.8,3.7-1.8
						c2.8,0,4.1,2,4.1,4.6v6h-2.1v-5.7c0-1.8-0.8-3-2.6-3c-1.7,0-2.7,1.1-3.1,2.3v6.4h-2.1V23.1L80.6,23.1L80.6,23.1z"/>
				</g>
			</g>
		</g>
	</g>
</g>
</svg>
